<?xml version="1.0" standalone="no"?>
<!DOCTYPE svg PUBLIC "-//W3C//DTD SVG 1.1//EN" "http://www.w3.org/Graphics/SVG/1.1/DTD/svg11.dtd">

<svg viewBox="0 0 511.114 135.413" style="shape-rendering: geometricprecision;" xmlns="http://www.w3.org/2000/svg">
  <g id="m2" transform="matrix(0.35519, 0, 0, 0.35519, 65.84742, 40.963921)" style="">
    <path class="fil0 str0" d="M9.0998 0.1l125.601 0c4.9697,0 8.9999,4.0302 8.9999,8.9999l0 117c0,4.9696 -4.0302,8.9998 -8.9999,8.9998l-125.601 0.0002c-4.9696,-0.0002 -8.9998,-4.0304 -8.9998,-9.0001l-0.0001 -117c0.0001,-4.9697 4.0303,-8.9999 9,-8.9999z" style="fill: rgb(170, 169, 169); stroke: rgb(31, 26, 23); stroke-width: 0.2px;"/>
    <path class="fil1" d="M9.1439 3.3l125.512 0c3.2271,0 5.8441,2.617 5.8441,5.8441l0 116.912c0,3.227 -2.617,5.844 -5.8441,5.844l-125.512 0.0001c-3.227,-0.0001 -5.844,-2.6171 -5.844,-5.8442l-0.0001 -116.911c0.0001,-3.2271 2.6171,-5.8441 5.8442,-5.8441z" style="fill: rgb(255, 255, 255);"/>
    <path class="fil2" d="M140.5 109.662l-22.2376 22.2376 16.3935 0c3.2143,0 5.8441,-2.6298 5.8441,-5.8441l0 -16.3935z" style="fill: rgb(152, 202, 67);"/>
    <g id="_335356496">
      <rect id="_334871048" class="fil0" transform="matrix(0.707107 0.707107 -0.707107 0.707107 69.806 63.3328)" width="1.9999" height="3.2984" style="fill: rgb(170, 169, 169);"/>
      <rect id="_334871768" class="fil0" transform="matrix(0.707107 0.707107 -0.707107 0.707107 74.9474 68.4742)" width="1.9999" height="3.2984" style="fill: rgb(170, 169, 169);"/>
      <g>
        <polygon id="_334871528" class="fil3" points="70.4471,70.8025 68.8915,69.2469 73.627,64.5113 75.1827,66.067 " style="fill: rgb(170, 169, 169); fill-opacity: 0;"/>
        <polygon id="_334871840" class="fil0" points="70.4471,70.8025 68.8915,69.2469 73.627,64.5113 75.1827,66.067 " style="fill: rgb(170, 169, 169);"/>
      </g>
    </g>
  </g>
  <g transform="matrix(0.863875, 0, 0, 0.863875, -29.370577, -176.184479)" id="earth">
    <g transform="matrix(0.292269, 0, 0, 0.292269, 253.523026, 205.445847)">
      <g>
        <ellipse transform="matrix(0.9788 -0.2048 0.2048 0.9788 -46.1169 55.6414)" class="st2" cx="245.8" cy="250.6" rx="105.2" ry="105.2" style="fill: rgb(69, 187, 198);"/>
      </g>
      <g style="">
        <defs>
          <ellipse id="SVGID_1_" transform="matrix(0.9926 -0.1217 0.1217 0.9926 -28.6265 31.7133)" cx="245.3" cy="250.2" rx="100.6" ry="100.6"/>
        </defs>
        <clipPath id="SVGID_2_">
          <ellipse transform="matrix(0.9925999641418457, -0.12170000374317169, 0.12170000374317169, 0.9925999641418457, -28.62649917602539, 31.713300704956055)" cx="245.3" cy="250.2" rx="100.6" ry="100.6" style="overflow: visible;"/>
        </clipPath>
        <g class="st3" style="clip-path: url(#SVGID_2_);">
          <g>
            <path class="st4" d="M449.6,212.7c1.2,0.7,2.7,1.2,3.6,2.1c2.6,2.6,5,5.3,7.4,8.1c1.1,1.2,2,1.4,3,0.1c1.5-2.1,2.9-4.4,4.6-6.4 c3.2-3.7,3.1-8.9-0.9-11.8c-3.6-2.6-7.3-5-10.9-7.4c-1.3-0.8-2.1-1.6,0-2.4c0.6-0.2,1.2-0.7,1.9-0.8c4.8-0.4,9.6-0.9,14.4-1.1 c3.3-0.2,6.3-1,8.1-3.7c2.4-3.4,4.3-7.1,6.2-10.8c0.9-1.9-0.4-4.7-2.4-5.4c-1.8-0.6-3.7-1.2-5.6-1.2 c-5.5-0.2-10.9-0.1-16.4-0.2c-2.6-0.1-5.2-0.6-7.9-0.6c-4.6,0-9.3,0.5-13.9,0.5c-5.5,0-11-0.1-16.5-0.6 c-4-0.4-7.8-1.7-11.8-2.2c-6.2-0.9-12.5-0.7-18.4-3.2c-1.4-0.6-3.2-1.1-4.5-0.6c-4,1.6-8.1,3.3-11.8,5.6 c-6.4,4-13.1,6.6-20.8,5.8c-3.6-0.4-7.1-0.7-10.7-1.2c-3.8-0.6-7.5-1.6-11.3-2.1c-7.1-0.9-13,2.5-18.8,6 c-2.5,1.5-2.6,3.1-1.2,5.7c1.2,2.1,2.4,4.1,3.5,6.2c1.4,2.6,2.5,2.8,5.2,1.6c3-1.3,6-2.4,9.1-3.5c2-0.7,3.1,0.7,3.5,2.4 c0.8,4.1-1.7,6.9-5.9,6.9c-8.4,0-16.8-0.1-25.1-0.1c-1.3,0-2.7,0.4-3.9,0.9c-1.7,0.7-3.3,1.7-5.1,2.4c-2,0.7-3.5,1.7-3.3,4 c0.3,2.3,0.6,4.6,1.2,6.9c1.5,5.8,5.5,8.1,10.9,5.8c5-2.1,9.8-4.7,14.8-6.9c1.6-0.7,3.7-1.5,5-0.9c4.3,1.8,8.8,2.8,13.4,2.7 c2.6,0,5.3-0.1,7.9,0c3.4,0.2,4.7,2.8,2.8,5.6c-0.6,0.8-1.3,1.5-2.1,2.2c-4.6,4.4-9.6,8.1-16.5,6.9c-3.4-0.6-6.8-1.3-10.1-2.3 c-6.4-2.1-13-3.5-19.8-2.9c-3.8,0.3-6.9,2.2-9.4,4.9c-2.8,3.1-5.1,6.6-7.8,9.7c-7,7.8-6.6,10.2,0.4,17 c5.4,5.3,11.6,9.6,19.3,10.8c4.1,0.7,8.3,0.9,12.5,1.2c1.6,0.1,2.4,0.5,2.1,2.4c-0.5,3.2-1.1,6.4-1.1,9.6 c0,5.3,0.5,10.6,0.8,16c0.3,4.3,2.3,7.7,5.3,10.8c2.5,2.5,4.8,5.3,7.1,8c1.1,1.3,2,2.7,3.1,4c1.1,1.3,2.6,1.5,3.8,0.3 c2.5-2.6,5.6-4.9,7.1-8c4-8.3,7.6-16.8,10.7-25.4c2.6-7.2,6.3-13,13.1-16.9c3.4-1.9,6.5-4.6,9.4-7.2c2.4-2.1,2-3.2-0.8-4.5 c-1-0.4-2.2-0.7-3.1-1.2c-8.7-4.9-15.9-11.5-22.2-19.1c-1-1.2-1.3-2.9-1.9-4.4c3.3-1.1,4.5,0.9,5.3,2.6 c3.9,7.4,10.2,11.4,17.9,13.7c2.3,0.7,4.6,0.3,6.3-1.8c2.9-3.6,2.8-5-0.1-8.5c-2.8-3.4-5.2-7.1-7.8-10.6c0,0,0.1-0.2,0.2-0.6 c2.5,0.9,5.1,1.7,7.6,2.7c4.4,1.9,9.2,3.5,12.3,7.4c3.3,4.2,6.6,8.4,9.8,12.7c1.3,1.8,2.3,3.9,3.8,5.4c0.8,0.8,2.6,1.2,3.8,0.9 c1-0.3,2.3-1.6,2.5-2.7c0.7-2.6,0.9-5.3,1.2-8c0.8-7.5,5.5-9.8,11.8-5.8c2.3,1.5,4.2,3.4,6.3,5.2c3.4,2.9,6.5,6.2,10.3,8.5 c5.3,3.2,6.3,2.7,9.7-1.3c2.7-3.2,2.8-5.2,0.6-8.5c-0.8-1.1-1.5-2.2-2.3-3.3c-2.4-3.7-3.2-7.7-2.3-11.9 C447,222.3,448.2,218,449.6,212.7z" style="fill: rgb(204, 228, 196);"/>
          </g>
          <g>
            <path class="st4" d="M183.1,235.7c5.5-0.4,10.7-0.8,16-1.2c4.3-0.3,7.6-2.2,9.8-6.1c1.1-2,2.3-4,3.8-5.7 c5.2-6.2,11.5-10.2,20-9.5c4.5,0.3,7.9-1.6,10.2-5.3c1.4-2.3,2.8-4.7,3.7-7.2c1.9-5.8,0.5-8.9-5.1-12c-1.1-0.6-2.3-1.5-3.5-1.5 c-4.1-0.2-8.3-0.6-12.3,0.1c-2.8,0.4-4.3,0.8-5.9-1.7c-1.2-1.8-0.8-3.5,0.7-5.1c0.5-0.5,0.7-2,0.6-2.1 c-2.9-1.1-4.7-3.4-6.4-5.8c-0.2-0.3-0.7-0.6-1.1-0.6c-6.5-0.2-12.9-1-19,3.4c-5.8,4.2-12.7,4.6-19.3,0.9c-4.3-2.4-8-5.7-13-6.9 c-5.2-1.2-9.8-1.1-14.3,2.2c-4.2,3.1-8.5,6.2-13.2,8.5c-3.4,1.7-3.2,5.8-0.7,7.5c4.8,3.4,10,5.9,16,5.4 c3.2-0.2,6.4-0.8,9.7-0.9c1.1,0,2.9,1,3.1,1.8c0.4,1.4,0,3.3-0.6,4.7c-1.2,2.8-2.8,5.4-4.3,8.1c-3.2,5.7-5.4,11.5-4.5,18.3 c0.4,2.9-0.1,6,0.2,9c0.3,3.6,1.1,7.5,4.5,9.4c3.7,2.1,8,2.7,12.4,2c5.1-0.8,10.3-1.3,15,1.7c4.2,2.6,6,7.1,8.2,11.3 c1.9,3.6,1.5,6.7-1.9,9.2c-0.6,0.4-0.8,1.3-1.3,1.9c-1.5,1.7-0.7,2.9,0.9,3.9c3.4,2.2,6.8,4.3,10.1,6.5 c3.8,2.5,6.9,5.8,8.1,10.2c2.2,8.5,1.3,17.2,0.5,25.9c-0.5,5.7,0.4,11,3.7,15.8c3.2,4.6,7.7,7.3,12.7,9.3 c5.6,2.2,9.5-0.4,11.1-4.6c1.6-4.3,2.7-8.9,3.9-13.3c1.1-4.1,2.5-7.8,6-10.6c2.1-1.7,4.2-3.7,5.5-6c4.8-8.6,6.6-18.1,7.7-27.7 c0.2-1.6,0.4-3.3,0.7-4.9c0.8-3.7-0.8-7.7-3.8-8.7c-4-1.3-8.2-2.1-12.2-3.4c-3.5-1.1-7-2.2-10.2-3.8c-3.9-1.9-7.4-5.1-11.4-6.5 c-7.1-2.4-14.6-3.6-21.8-5.5c-4.5-1.2-9.1-2.6-13.4-4.5C185.9,240.5,183.3,238.9,183.1,235.7z" style="fill: rgb(204, 228, 196);"/>
          </g>
          <g>
            <path class="st4" d="M247.9,168.1c0.8,1.4,1.4,2.2,1.8,3c1.2,2.3,2.3,4.7,3.4,7c0.8,1.8,0.7,4.4,2.9,5.1 c4.1,1.3,8.4,1.2,12.3-0.3c5-1.9,9.8-4.4,14.6-7c3.8-2,7.6-4.1,9.8-8.2c0.7-1.3,1.1-2.3-0.4-3.6c-5.3-4.4-11.1-7.9-17.8-9.1 c-8.1-1.5-15.7,0.3-21.8,6.3C250.9,163.4,249.6,165.8,247.9,168.1z" style="fill: rgb(204, 228, 196);"/>
          </g>
          <g class="st5" style="opacity: 0.5;">
            <path class="st4" d="M449.6,212.7c-1.4,5.3-2.6,9.6-3.6,14c-0.9,4.2-0.1,8.3,2.3,11.9c0.7,1.1,1.5,2.2,2.3,3.3 c2.3,3.4,2.2,5.3-0.6,8.5c-3.4,4-4.5,4.5-9.7,1.3c-3.8-2.3-6.9-5.6-10.3-8.5c-2.1-1.7-4-3.7-6.3-5.2 c-6.3-4.1-11.1-1.7-11.8,5.8c-0.3,2.7-0.5,5.4-1.2,8c-0.3,1.1-1.5,2.4-2.5,2.7c-1.1,0.3-3-0.1-3.8-0.9 c-1.5-1.5-2.5-3.6-3.8-5.4c-3.2-4.3-6.4-8.5-9.8-12.7c-3.2-4-7.9-5.5-12.3-7.4c-2.5-1.1-5-1.8-7.6-2.7 c-0.2,0.5-0.2,0.6-0.2,0.6c2.6,3.6,5,7.2,7.8,10.6c2.9,3.4,3,4.9,0.1,8.5c-1.7,2.1-4,2.5-6.3,1.8c-7.7-2.3-14-6.3-17.9-13.7 c-0.9-1.6-2-3.6-5.3-2.6c0.6,1.5,0.9,3.3,1.9,4.4c6.3,7.7,13.5,14.2,22.2,19.1c1,0.5,2.1,0.8,3.1,1.2c2.8,1.2,3.2,2.3,0.8,4.5 c-2.9,2.6-6,5.3-9.4,7.2c-6.8,3.9-10.5,9.7-13.1,16.9c-3.1,8.6-6.7,17.1-10.7,25.4c-1.5,3.1-4.6,5.4-7.1,8 c-1.2,1.2-2.7,1-3.8-0.3c-1.1-1.3-2-2.7-3.1-4c-2.3-2.7-4.6-5.4-7.1-8c-3-3-5.1-6.5-5.3-10.8c-0.3-5.3-0.8-10.6-0.8-16 c0-3.2,0.6-6.4,1.1-9.6c0.3-1.9-0.4-2.3-2.1-2.4c-4.2-0.3-8.4-0.5-12.5-1.2c-7.7-1.3-13.8-5.5-19.3-10.8c-7-6.9-7.3-9.2-0.4-17 c2.8-3.1,5.1-6.6,7.8-9.7c2.5-2.8,5.5-4.6,9.4-4.9c6.8-0.6,13.3,0.8,19.8,2.9c3.3,1.1,6.7,1.7,10.1,2.3 c6.9,1.2,11.9-2.5,16.5-6.9c0.7-0.7,1.5-1.4,2.1-2.2c1.9-2.8,0.6-5.4-2.8-5.6c-2.6-0.2-5.3-0.1-7.9,0 c-4.7,0.1-9.1-0.9-13.4-2.7c-1.3-0.6-3.5,0.2-5,0.9c-5,2.2-9.8,4.8-14.8,6.9c-5.4,2.2-9.4,0-10.9-5.8c-0.6-2.2-1-4.6-1.2-6.9 c-0.3-2.3,1.3-3.3,3.3-4c1.7-0.6,3.3-1.7,5.1-2.4c1.2-0.5,2.6-0.9,3.9-0.9c8.4,0,16.8,0.1,25.1,0.1c4.3,0,6.7-2.9,5.9-6.9 c-0.3-1.6-1.5-3-3.5-2.4c-3.1,1-6.1,2.1-9.1,3.5c-2.7,1.2-3.8,1-5.2-1.6c-1.2-2.1-2.3-4.2-3.5-6.2c-1.4-2.5-1.3-4.2,1.2-5.7 c5.8-3.4,11.6-6.9,18.8-6c3.8,0.5,7.5,1.5,11.3,2.1c3.5,0.5,7.1,0.8,10.7,1.2c7.7,0.8,14.4-1.8,20.8-5.8 c3.7-2.3,7.7-4,11.8-5.6c1.2-0.5,3.1,0.1,4.5,0.6c5.9,2.5,12.3,2.3,18.4,3.2c3.9,0.5,7.8,1.8,11.8,2.2c5.5,0.5,11,0.6,16.5,0.6 c4.6,0,9.3-0.4,13.9-0.5c2.6,0,5.2,0.6,7.9,0.6c5.5,0.1,10.9,0,16.4,0.2c1.9,0.1,3.8,0.6,5.6,1.2c2,0.7,3.3,3.5,2.4,5.4 c-1.8,3.7-3.8,7.4-6.2,10.8c-1.8,2.7-4.9,3.5-8.1,3.7c-4.8,0.2-9.6,0.7-14.4,1.1c-0.6,0.1-1.2,0.5-1.9,0.8 c-2.1,0.8-1.3,1.6,0,2.4c3.7,2.5,7.4,4.8,10.9,7.4c3.9,2.9,4.1,8.1,0.9,11.8c-1.7,2-3,4.3-4.6,6.4c-1,1.3-1.9,1.2-3-0.1 c-2.4-2.8-4.8-5.5-7.4-8.1C452.3,213.9,450.8,213.4,449.6,212.7z" style="fill: rgb(204, 228, 196);"/>
          </g>
          <g class="st5" style="opacity: 0.5;">
            <path class="st4" d="M183.1,235.7c0.2,3.2,2.8,4.8,5.1,5.8c4.3,1.9,8.8,3.3,13.4,4.5c7.3,2,14.7,3.2,21.8,5.5 c4.1,1.3,7.5,4.5,11.4,6.5c3.3,1.6,6.8,2.8,10.2,3.8c4,1.3,8.2,2.1,12.2,3.4c3.1,1,4.6,5,3.8,8.7c-0.3,1.6-0.5,3.3-0.7,4.9 c-1,9.7-2.8,19.2-7.7,27.7c-1.3,2.3-3.4,4.3-5.5,6c-3.5,2.8-4.9,6.5-6,10.6c-1.2,4.5-2.3,9-3.9,13.3c-1.6,4.2-5.5,6.8-11.1,4.6 c-5-2-9.5-4.7-12.7-9.3c-3.3-4.8-4.2-10.1-3.7-15.8c0.8-8.7,1.7-17.4-0.5-25.9c-1.1-4.4-4.3-7.7-8.1-10.2 c-3.3-2.2-6.7-4.4-10.1-6.5c-1.6-1-2.4-2.2-0.9-3.9c0.5-0.6,0.7-1.4,1.3-1.9c3.4-2.5,3.8-5.5,1.9-9.2c-2.2-4.2-4-8.7-8.2-11.3 c-4.7-2.9-9.9-2.4-15-1.7c-4.4,0.7-8.6,0-12.4-2c-3.4-1.9-4.2-5.7-4.5-9.4c-0.2-3,0.2-6-0.2-9c-0.9-6.8,1.4-12.6,4.5-18.3 c1.5-2.7,3-5.3,4.3-8.1c0.6-1.4,1-3.3,0.6-4.7c-0.2-0.8-2-1.8-3.1-1.8c-3.2,0-6.4,0.6-9.7,0.9c-6.1,0.4-11.2-2.1-16-5.4 c-2.5-1.7-2.7-5.8,0.7-7.5c4.7-2.3,9-5.4,13.2-8.5c4.5-3.4,9.1-3.4,14.3-2.2c5,1.2,8.8,4.4,13,6.9c6.6,3.8,13.5,3.3,19.3-0.9 c6.1-4.4,12.4-3.5,19-3.4c0.4,0,0.9,0.3,1.1,0.6c1.7,2.4,3.5,4.7,6.4,5.8c0.1,0-0.2,1.6-0.6,2.1c-1.5,1.6-1.9,3.3-0.7,5.1 c1.6,2.5,3.1,2.1,5.9,1.7c4-0.6,8.2-0.3,12.3-0.1c1.2,0.1,2.4,0.9,3.5,1.5c5.6,3.1,7,6.1,5.1,12c-0.8,2.5-2.2,5-3.7,7.2 c-2.3,3.7-5.7,5.6-10.2,5.3c-8.5-0.6-14.9,3.3-20,9.5c-1.4,1.7-2.6,3.7-3.8,5.7c-2.2,3.8-5.5,5.7-9.8,6.1 C193.9,234.9,188.6,235.3,183.1,235.7z" style="fill: rgb(204, 228, 196);"/>
          </g>
          <g>
            <path class="st4" d="M247.9,168.1c1.7-2.3,3-4.7,4.9-6.6c6.1-6,13.7-7.8,21.8-6.3c6.7,1.2,12.5,4.7,17.8,9.1 c1.5,1.2,1,2.3,0.4,3.6c-2.1,4.1-6,6.2-9.8,8.2c-4.7,2.6-9.5,5.1-14.6,7c-3.9,1.4-8.2,1.6-12.3,0.3c-2.3-0.7-2.1-3.3-2.9-5.1 c-1.1-2.4-2.2-4.7-3.4-7C249.3,170.3,248.8,169.5,247.9,168.1z" style="fill: rgb(204, 228, 196);"/>
          </g>
        </g>
      </g>
    </g>
  </g>
  <g id="cloud">
    <path d="M 432.771 43.524 C 426.582 43.526 420.883 46.684 417.884 51.772 C 416.722 51.501 415.53 51.361 414.333 51.355 C 408.029 51.363 402.4 55.067 400.235 60.633 L 395.975 60.633 C 389.573 60.633 384.419 65.787 384.419 72.189 C 384.419 78.591 389.573 83.746 395.975 83.746 L 446.384 83.746 C 452.786 83.746 457.94 78.591 457.94 72.189 C 457.94 66.944 454.48 62.539 449.71 61.117 C 449.766 60.589 449.795 60.058 449.795 59.527 C 449.795 50.689 442.173 43.524 432.771 43.524 Z" fill="none" style="stroke: rgb(0, 170, 255);"></path>
    <g transform="matrix(0.052822, 0, 0, 0.052822, 444.183319, 34.450359)" fill="#2196f3" style="">
      <rect x="-642.06" y="796.01" width="112.28" height="102.88" ry=".69815" style="fill: rgb(208, 47, 230);"></rect>
      <path transform="matrix(.29544 -.22019 .40857 .15922 -333.77 617.99)" d="m-660.47-23.102-76.89 174.8-110.97-155.41-112.94-153.99l190.07-18.403 189.83-20.811z" style="fill: rgb(208, 47, 230);"></path>
      <rect x="-682.67" y="804.03" width="193.57" height="8.6052" ry="2.056" style="fill: rgb(208, 47, 230);"></rect>
    </g>
    <g transform="matrix(0.054432, 0, 0, -0.054432, 464.664276, 121.458061)" fill="#4caf50" style="">
      <rect x="-642.06" y="796.01" width="112.28" height="102.88" ry=".69815" style="fill: rgb(32, 170, 36);"></rect>
      <path transform="matrix(.29544 -.22019 .40857 .15922 -333.77 617.99)" d="m-660.47-23.102-76.89 174.8-110.97-155.41-112.94-153.99l190.07-18.403 189.83-20.811z" style="fill: rgb(32, 170, 36);"></path>
      <rect x="-682.67" y="804.03" width="193.57" height="8.6052" ry="2.056" style="fill: rgb(32, 170, 36);"></rect>
    </g>
    <text style="fill: rgb(0, 170, 255); font-family: Helvetica Neue; font-size: 8px; font-weight: 700; white-space: pre;" x="392" y="69.239">Network Server</text>
  </g>
  <g transform="matrix(0.74709, 0, 0, 0.654897, 208.290756, -81.041962)" id="arrow-right">
    <rect x="114.315" y="220.203" width="97.266" height="3.175" style="fill: rgb(216, 216, 216);"/>
    <path d="M 109.992 122.079 L 115.751 139.772 L 104.234 139.772 L 109.992 122.079 Z" style="fill: rgb(216, 216, 216);" transform="matrix(0, 1, -1, 0, 350.464539, 111.66407)" bx:shape="triangle 104.234 122.079 11.517 17.693 0.5 0 1@b25aee0f"/>
    <path d="M 180.243 223.687 L 186.001 241.38 L 174.484 241.38 L 180.243 223.687 Z" style="fill: rgb(216, 216, 216);" transform="matrix(0, -1, 1, 0, -126.829872, 402.043335)" bx:shape="triangle 174.484 223.687 11.517 17.693 0.5 0 1@119e6202"/>
  </g>
  <g transform="matrix(0.74709, 0, 0, 0.654897, 51.030315, -80.748947)" id="arrow-left">
    <rect x="114.315" y="220.203" width="97.266" height="3.175" style="fill: rgb(216, 216, 216);"/>
    <path d="M 109.992 122.079 L 115.751 139.772 L 104.234 139.772 L 109.992 122.079 Z" style="fill: rgb(216, 216, 216);" transform="matrix(0, 1, -1, 0, 350.464539, 111.66407)" bx:shape="triangle 104.234 122.079 11.517 17.693 0.5 0 1@b25aee0f"/>
    <path d="M 180.243 223.687 L 186.001 241.38 L 174.484 241.38 L 180.243 223.687 Z" style="fill: rgb(216, 216, 216);" transform="matrix(0, -1, 1, 0, -126.829872, 402.043335)" bx:shape="triangle 174.484 223.687 11.517 17.693 0.5 0 1@119e6202"/>
  </g>
  <g transform="matrix(1, 0, 0, 1, -5.675522, -112)" style="visibility: hidden;" id="check_internet">
    <rect x="39.586" y="182.239" width="20.498" height="5.723" style="fill: rgb(29, 199, 32);" transform="matrix(0.691735, 0.722151, -0.722153, 0.691734, 266.355865, 11.947325)"/>
    <rect x="139.585" y="48.57" width="5.47" height="30.719" style="fill: rgb(29, 199, 32);" transform="matrix(0.691735, 0.722151, -0.722153, 0.691734, 129.103317, 25.907301)"/>
  </g>
  <g transform="matrix(1, 0, 0, 1, 0.996659, -184)" style="visibility: hidden;" id="error_internet">
    <path d="M 400.639 281.975 H 405.592 V 291.882 H 415.498 V 296.835 H 405.592 V 306.741 H 400.639 V 296.835 H 390.732 V 291.882 H 400.639 Z" style="fill: rgb(244, 8, 8);" transform="matrix(0.707107, 0.707107, -0.707107, 0.707107, 94.054764, -244.620087)" bx:shape="cross 390.732 281.975 24.766 24.766 4.953 4.953 0.5 1@af387523"/>
  </g>
  <g transform="matrix(1, 0, 0, 1, 152.778839, -112)" style="visibility: hidden;" id="check_validator">
    <rect x="39.586" y="182.239" width="20.498" height="5.723" style="fill: rgb(29, 199, 32);" transform="matrix(0.691735, 0.722151, -0.722153, 0.691734, 266.355865, 11.947325)"/>
    <rect x="139.585" y="48.57" width="5.47" height="30.719" style="fill: rgb(29, 199, 32);" transform="matrix(0.691735, 0.722151, -0.722153, 0.691734, 129.103317, 25.907301)"/>
  </g>
  <g transform="matrix(1, 0, 0, 1, 159.451019, -184)" style="visibility: hidden;" id="error_validator">
    <path d="M 400.639 281.975 H 405.592 V 291.882 H 415.498 V 296.835 H 405.592 V 306.741 H 400.639 V 296.835 H 390.732 V 291.882 H 400.639 Z" style="fill: rgb(244, 8, 8);" transform="matrix(0.707107, 0.707107, -0.707107, 0.707107, 94.054764, -244.620087)" bx:shape="cross 390.732 281.975 24.766 24.766 4.953 4.953 0.5 1@af387523"/>
  </g>
</svg>